# xmcd
#
# Track frame offsets:
#	183
#	13653
#	28683
#	39575
#	50525
#	63365
#	88358
#	103508
#	118745
#	131913
#	145658
#	161085
#	173975
#	185323
#	195500
#	208940
#
# Disc length: 2941 seconds
#
# Revision: 0
# Processed by: cddbd v1.5.2PL0 Copyright (c) Steve Scherf et al.
# Submitted via: dBpowerAMP V4.0
#
DISCID=e90b7b10
DTITLE=Nelson Henríquez y Pastor López - Grandes Exitos
DYEAR=1900
DGENRE=
TTITLE0=Saguate Cumbia
TTITLE1=LA Batea
TTITLE2=Relatos de Macondo
TTITLE3=La Arañita
TTITLE4=El Pergamino
TTITLE5=Mosaico N° 5
TTITLE6=Añoranza
TTITLE7=Que Mantequilla
TTITLE8=Quisiera y no Quisiera
TTITLE9=Tierra Linda
TTITLE10=Toros y Corraleja
TTITLE11=Se Cerró la Puerta
TTITLE12=Mi Vieja Barranquilla
TTITLE13=El Fiestón
TTITLE14=Cumbia de Buenaventura
TTITLE15=Ay Compa
EXTD=
EXTT0=
EXTT1=
EXTT2=
EXTT3=
EXTT4=
EXTT5=
EXTT6=
EXTT7=
EXTT8=
EXTT9=
EXTT10=
EXTT11=
EXTT12=
EXTT13=
EXTT14=
EXTT15=
PLAYORDER=
